<svg width="24" height="24" viewBox="0 0 24 24" fill="none" xmlns="http://www.w3.org/2000/svg">
<path d="M2.04766 18.566C1.98267 18.8583 1.98417 19.1615 2.05203 19.4532C2.1199 19.7449 2.2524 20.0176 2.43976 20.2513C2.62713 20.4849 2.86456 20.6735 3.13455 20.8031C3.40454 20.9326 3.70018 20.9999 3.99966 21H19.9997C20.2991 20.9999 20.5948 20.9326 20.8648 20.8031C21.1347 20.6735 21.3722 20.4849 21.5595 20.2513C21.7469 20.0176 21.8794 19.7449 21.9473 19.4532C22.0151 19.1615 22.0166 18.8583 21.9517 18.566L19.9517 9.566C19.8529 9.12187 19.6057 8.72468 19.2508 8.43998C18.896 8.15528 18.4546 8.00008 17.9997 8H5.99966C5.54469 8.00008 5.10335 8.15528 4.74847 8.43998C4.39359 8.72468 4.14638 9.12187 4.04766 9.566L2.04766 18.566Z" stroke="black" stroke-width="2" stroke-linecap="round" stroke-linejoin="round"/>
<path d="M8 11V6C8 4.93913 8.42143 3.92172 9.17157 3.17157C9.92172 2.42143 10.9391 2 12 2C13.0609 2 14.0783 2.42143 14.8284 3.17157C15.5786 3.92172 16 4.93913 16 6V11" stroke="black" stroke-width="2" stroke-linecap="round" stroke-linejoin="round"/>
</svg>
