<svg width="40" height="39" viewBox="0 0 40 39" fill="none" xmlns="http://www.w3.org/2000/svg">
<path d="M39.9926 24.5664C36.8254 32.7521 29.0685 38.5438 19.9956 38.5438C10.9229 38.5437 3.16711 32.7519 0 24.5664L4.5451 22.694C6.99509 29.0265 12.9925 33.4947 19.9956 33.4949C26.9988 33.4949 32.9974 29.0266 35.4475 22.694L39.9926 24.5664ZM19.9956 0C29.1611 7.791e-05 36.5924 7.44856 36.5927 16.6372C36.5927 18.773 36.1902 20.815 35.4589 22.6911L30.5831 20.7815C28.9263 25.0313 24.803 28.0278 19.9956 28.0279C15.1884 28.0276 11.0662 25.031 9.40942 20.7815L4.53364 22.6911C3.80231 20.815 3.39988 18.773 3.39988 16.6372C3.40016 7.44871 10.8302 0.000327456 19.9956 0Z" fill="white"/>
</svg>
