<svg width="32" height="30" viewBox="0 0 32 30" fill="none" xmlns="http://www.w3.org/2000/svg">
<path opacity="0.3" d="M14.8171 9.4878L14.0321 13.0649H17.8448L22.1059 14.1035V5.33371L17.8448 6.14145L14.8171 9.4878Z" fill="white"/>
<path d="M1.00012 21.6593L1.66507 17.9796C2.30383 14.4449 3.823 11.1412 6.07406 8.39146L7.76236 6.32914C10.5285 2.95019 14.6031 1.00001 18.8966 1.00005L28.1191 1C29.2525 0.999993 30.1714 1.94549 30.1714 3.11182C30.1714 4.27816 29.2525 5.22366 28.1191 5.22366H20.7764C17.181 5.22366 14.2664 8.22287 14.2664 11.9226V13.3693H20.2034C21.7415 13.3693 22.9884 14.6525 22.9884 16.2353C22.9884 17.8183 21.7415 19.1014 20.2034 19.1014H14.9627C10.5302 19.1014 6.93696 22.799 6.93696 27.3601V28.1878" stroke="white" stroke-width="2" stroke-linecap="round" stroke-linejoin="round"/>
</svg>
